<?xml version="1.0" encoding="UTF-8" standalone="no"?>
<!-- Created with Inkscape (http://www.inkscape.org/) -->
<svg
   xmlns:dc="http://purl.org/dc/elements/1.1/"
   xmlns:cc="http://web.resource.org/cc/"
   xmlns:rdf="http://www.w3.org/1999/02/22-rdf-syntax-ns#"
   xmlns:svg="http://www.w3.org/2000/svg"
   xmlns="http://www.w3.org/2000/svg"
   xmlns:sodipodi="http://sodipodi.sourceforge.net/DTD/sodipodi-0.dtd"
   xmlns:inkscape="http://www.inkscape.org/namespaces/inkscape"
   width="829.15814"
   height="386.27652"
   id="svg14588"
   sodipodi:version="0.32"
   inkscape:version="0.44"
   version="1.0"
   sodipodi:docbase="F:\Logos"
   sodipodi:docname="EA.svg">
  <defs
     id="defs14590" />
  <sodipodi:namedview
     id="base"
     pagecolor="#ffffff"
     bordercolor="#666666"
     borderopacity="1.0"
     inkscape:pageopacity="0.0"
     inkscape:pageshadow="2"
     inkscape:zoom="0.35"
     inkscape:cx="350"
     inkscape:cy="520"
     inkscape:document-units="px"
     inkscape:current-layer="layer1"
     inkscape:window-width="925"
     inkscape:window-height="573"
     inkscape:window-x="-12"
     inkscape:window-y="389" />
  <metadata
     id="metadata14593">
    <rdf:RDF>
      <cc:Work
         rdf:about="">
        <dc:format>image/svg+xml</dc:format>
        <dc:type
           rdf:resource="http://purl.org/dc/dcmitype/StillImage" />
      </cc:Work>
    </rdf:RDF>
  </metadata>
  <g
     inkscape:label="Ebene 1"
     inkscape:groupmode="layer"
     id="layer1"
     transform="translate(334.1942,-252.9926)">
    <path
       id="path7103"
       style="fill:black;fill-rule:nonzero;stroke:none;stroke-width:0.50709999;stroke-linecap:butt;stroke-linejoin:miter;stroke-miterlimit:4"
       d="M 150.78945,259.0139 L -164.09836,259.52931 L -215.40814,341.43764 L 99.01105,341.32049 L 150.78945,259.0139 M 14.666219,556.89211 C 10.917394,556.89211 -171.83003,557.29047 -184.48167,557.33727 C -178.39006,547.73144 -143.71506,493.28195 -141.84059,490.2128 C -137.85776,490.2128 -18.83763,490.2128 -12.511714,490.2128 L 39.501089,407.953 L -257.81511,408.46852 L -309.5934,490.44721 C -309.5934,490.44721 -308.18766,490.44721 -306.31349,490.44721 L -306.31349,490.44721 C -302.79897,490.44721 -296.70736,490.44721 -289.91302,490.40011 C -272.57552,490.37686 -249.14611,490.32995 -241.41464,490.32995 C -240.94603,490.32995 -240.47741,490.32995 -240.2431,490.32995 C -245.16327,498.15533 -298.34741,582.28928 -322.47955,620.54917 C -327.39952,628.42134 -331.14835,634.44259 -333.02251,637.41824 L -333.02251,637.41824 C -333.72544,638.58969 -334.19416,639.26916 -334.19416,639.26916 L 61.992867,639.22235 C 69.02181,628.14023 200.69356,417.98075 206.78518,408.35136 C 212.17397,416.575 247.552,472.68779 253.40929,482.08286 C 244.50618,482.08286 212.17397,482.08286 212.17397,482.08286 L 160.62968,564.01475 C 160.62968,564.01475 160.86399,564.01475 161.33261,564.01475 C 171.87577,564.01475 301.67337,564.01475 305.42189,564.01475 C 307.53056,567.31812 350.17165,634.65366 352.51453,638.19133 L 450.68282,638.19133 L 206.55087,252.99263 C 196.94494,268.03416 17.009007,553.42468 14.666219,556.89211" />
    <path
       style="fill:black;fill-rule:nonzero;stroke:none;stroke-width:0.50709999;stroke-linecap:butt;stroke-linejoin:miter;stroke-miterlimit:4;stroke-dasharray:none"
       d="M 489.34077,616.42562 L 484.4208,630.27225 L 479.50063,616.42562 L 473.87763,616.42562 L 473.87763,635.80155 L 477.39205,635.80155 L 477.39205,620.12735 L 482.78073,635.80155 L 486.06085,635.80155 L 491.21513,620.12735 L 491.21513,635.80155 L 494.96396,635.80155 L 494.96396,616.42562 L 489.34077,616.42562"
       class="ps02 ps11"
       id="path7107" />
    <path
       style="fill:black;fill-rule:nonzero;stroke:none;stroke-width:0.50709999;stroke-linecap:butt;stroke-linejoin:miter;stroke-miterlimit:4;stroke-dasharray:none"
       d="M 453.72864,619.63538 L 460.05435,619.63538 L 460.05435,635.80155 L 464.03739,635.80155 L 464.03739,619.63538 L 470.36321,619.63538 L 470.36321,616.42562 L 453.72864,616.42562 L 453.72864,619.63538"
       class="ps02 ps11"
       id="path7109" />
  </g>
</svg>
