<?xml version="1.0" encoding="UTF-8" standalone="no"?>
<!-- Created with Inkscape (http://www.inkscape.org/) -->

<svg
   xmlns:dc="http://purl.org/dc/elements/1.1/"
   xmlns:cc="http://creativecommons.org/ns#"
   xmlns:rdf="http://www.w3.org/1999/02/22-rdf-syntax-ns#"
   xmlns:svg="http://www.w3.org/2000/svg"
   xmlns="http://www.w3.org/2000/svg"
   version="1.1"
   width="1440"
   height="1080"
   id="svg2">
  <metadata
     id="metadata3385">
    <rdf:RDF>
      <cc:Work
         rdf:about="">
        <dc:format>image/svg+xml</dc:format>
        <dc:type
           rdf:resource="http://purl.org/dc/dcmitype/StillImage" />
        <dc:title></dc:title>
      </cc:Work>
    </rdf:RDF>
  </metadata>
  <defs
     id="defs4" />
  <g
     transform="matrix(1.2193486,0,0,1.2193486,78.401825,-323.24121)"
     id="g858">
    <g
       transform="translate(0,335.90552)"
       id="g816">
      <path
         d="M 312.5448,248.70428 739.81737,495.39021"
         id="path3703"
         style="fill:none;stroke:#000000;stroke-width:18.83098602;stroke-linecap:butt;stroke-linejoin:miter;stroke-miterlimit:4;stroke-opacity:1;stroke-dasharray:none" />
      <path
         d="M 739.81737,248.70428 312.5448,495.39021"
         id="path3705"
         style="fill:none;stroke:#000000;stroke-width:18.83098602;stroke-linecap:butt;stroke-linejoin:miter;stroke-miterlimit:4;stroke-opacity:1;stroke-dasharray:none" />
      <path
         d="m 526.18109,125.36131 0,493.37188"
         id="path3701"
         style="fill:none;stroke:#000000;stroke-width:18.83098602;stroke-linecap:butt;stroke-linejoin:miter;stroke-miterlimit:4;stroke-opacity:1;stroke-dasharray:none" />
      <path
         d="m 686.24447,372.04723 a 160.06338,160.06338 0 0 1 -320.12677,0 160.06338,160.06338 0 1 1 320.12677,0 z"
         id="path2816"
         style="fill:#e67e46;fill-opacity:1;stroke:#000000;stroke-width:26.36338043;stroke-miterlimit:4;stroke-opacity:1;stroke-dasharray:none" />
      <path
         d="m 364.23456,372.04723 c 74.79357,80.94181 259.8549,79.64503 323.89306,0"
         id="path3590"
         style="fill:none;stroke:#000000;stroke-width:15.06478882;stroke-linecap:round;stroke-linejoin:miter;stroke-miterlimit:4;stroke-opacity:1;stroke-dasharray:none" />
      <path
         d="m 544.25884,393.17351 a 18.077746,18.077746 0 1 1 -36.15549,0 18.077746,18.077746 0 1 1 36.15549,0 z"
         id="path3592"
         style="fill:#000000;fill-opacity:1;stroke:#000000;stroke-width:1.15040195;stroke-opacity:1" />
      <g
         transform="matrix(0.79090138,0,0,0.79090138,110.02373,-161.99249)"
         id="g3735"
         style="stroke:#000000;stroke-opacity:1">
        <path
           d="m 471.42857,278.38019 a 64.285715,64.285715 0 1 1 -128.57143,0 64.285715,64.285715 0 1 1 128.57143,0 z"
           transform="matrix(0.77777779,0,0,0.77777779,123.33333,410.84426)"
           id="path3594"
           style="fill:#000000;fill-opacity:1;stroke:#000000;stroke-opacity:1" />
        <path
           d="m 471.42857,278.38019 a 64.285715,64.285715 0 1 1 -128.57143,0 64.285715,64.285715 0 1 1 128.57143,0 z"
           transform="matrix(-0.77777779,0,0,0.77777779,929.02887,410.84426)"
           id="path3614"
           style="fill:#000000;fill-opacity:1;stroke:#000000;stroke-opacity:1" />
      </g>
      <path
         d="m 561.69093,430.62028 0,97.92112"
         id="path3624"
         style="fill:none;stroke:#000000;stroke-width:11.29859066;stroke-linecap:butt;stroke-linejoin:miter;stroke-miterlimit:4;stroke-opacity:1;stroke-dasharray:none" />
      <path
         d="m 632.71067,418.78367 0,78.55211"
         id="path3626"
         style="fill:none;stroke:#000000;stroke-width:11.29859066;stroke-linecap:butt;stroke-linejoin:miter;stroke-miterlimit:4;stroke-opacity:1;stroke-dasharray:none" />
      <path
         d="m 490.67123,430.62028 0,97.92112"
         id="path3634"
         style="fill:none;stroke:#000000;stroke-width:11.29859066;stroke-linecap:butt;stroke-linejoin:miter;stroke-miterlimit:4;stroke-opacity:1;stroke-dasharray:none" />
      <path
         d="m 419.6515,415.77071 0,78.55211"
         id="path3636"
         style="fill:none;stroke:#000000;stroke-width:11.29859066;stroke-linecap:butt;stroke-linejoin:miter;stroke-miterlimit:4;stroke-opacity:1;stroke-dasharray:none" />
      <path
         d="m 283.48227,422.20965 c 10.93376,53.1563 38.90994,100.08309 77.94458,134.86112 m 86.84625,50.23758 c 51.11549,17.25746 104.64877,15.1734 155.84038,0 m 86.84624,-50.23758 c 39.03042,-34.77726 66.98715,-81.70854 77.92019,-134.86112 m 0,-100.35324 C 757.94687,268.70383 729.99014,221.77256 690.95972,186.9953 m -86.84624,-50.23759 c -51.13731,-17.12678 -104.66861,-15.23407 -155.84038,0 m -86.84625,50.23759 c -39.03464,34.77802 -67.01082,81.70481 -77.94458,134.86111"
         id="path3690"
         style="fill:none;stroke:#000000;stroke-width:30;stroke-linecap:butt;stroke-linejoin:round;stroke-miterlimit:4;stroke-opacity:1;stroke-dasharray:none" />
    </g>
  </g>
</svg>
